<mxfile host="app.diagrams.net" modified="2022-11-23T02:15:21.276Z" agent="5.0 (Windows NT 10.0; Win64; x64) AppleWebKit/537.36 (KHTML, like Gecko) Chrome/107.0.0.0 Safari/537.36" etag="WnGmxbCMfmkqaau_xrsY" version="20.5.3" type="github">
  <diagram id="XL2OUzx1IlDODS8OFSQM" name="第 1 页">
    <mxGraphModel dx="1353" dy="746" grid="1" gridSize="10" guides="1" tooltips="1" connect="1" arrows="1" fold="1" page="1" pageScale="1" pageWidth="827" pageHeight="1169" math="0" shadow="0">
      <root>
        <mxCell id="0" />
        <mxCell id="1" parent="0" />
        <mxCell id="hTlhWIvx2myvhs2P0BdL-1" value="本田oms-engineering" style="whiteSpace=wrap;html=1;" vertex="1" parent="1">
          <mxGeometry x="40" y="180" width="590" height="50" as="geometry" />
        </mxCell>
        <mxCell id="hTlhWIvx2myvhs2P0BdL-2" value="pic-video-decoder" style="whiteSpace=wrap;html=1;" vertex="1" parent="1">
          <mxGeometry x="40" y="250" width="590" height="40" as="geometry" />
        </mxCell>
        <mxCell id="hTlhWIvx2myvhs2P0BdL-3" value="test-code" style="whiteSpace=wrap;html=1;" vertex="1" parent="1">
          <mxGeometry x="40" y="310" width="200" height="40" as="geometry" />
        </mxCell>
        <mxCell id="hTlhWIvx2myvhs2P0BdL-4" value="stability-tool" style="whiteSpace=wrap;html=1;" vertex="1" parent="1">
          <mxGeometry x="270" y="310" width="150" height="40" as="geometry" />
        </mxCell>
        <mxCell id="hTlhWIvx2myvhs2P0BdL-5" value="pic-video-tool" style="whiteSpace=wrap;html=1;" vertex="1" parent="1">
          <mxGeometry x="440" y="310" width="190" height="40" as="geometry" />
        </mxCell>
      </root>
    </mxGraphModel>
  </diagram>
</mxfile>
